# xmcd
# Copyright (C) 1995-1998 Ti Kan
#
# Track frame offsets:
#       150
#       15708
#       30574
#       46849
#       64053
#       79526
#       98511
#       115373
#       132384
#       147288
#       162829
#       175980
#       195058
#
# Disc length: 2828 seconds
#
# Revision: 1
# Processed by: cddbd v1.4PL0 Copyright (c) Steve Scherf et al.
# Submitted via: CD-Transfer v1.0
#
DISCID=9d0b0a0d
DTITLE=Martin Schaffner - Oooh Baby
DYEAR=2001
DGENRE=
TTITLE0=Valérie
TTITLE1=Maler
TTITLE2=Malaysia
TTITLE3=Gleis 13
TTITLE4=Sehnsuchtsland
TTITLE5=Troim Doch
TTITLE6=Nie Meh Rock'n' Roll
TTITLE7=Scho Lang Verbii
TTITLE8=Im Falsche Film
TTITLE9=Rote Ballon
TTITLE10=Oooh Baby
TTITLE11=Dorf
TTITLE12=Stundeglas
EXTD=
EXTT0=
EXTT1=
EXTT2=
EXTT3=
EXTT4=
EXTT5=
EXTT6=
EXTT7=
EXTT8=
EXTT9=
EXTT10=
EXTT11=
EXTT12=
PLAYORDER=
